<?xml version="1.0" encoding="utf-8"?>
<!-- Generator: Adobe Illustrator 16.0.4, SVG Export Plug-In . SVG Version: 6.00 Build 0)  -->
<!DOCTYPE svg PUBLIC "-//W3C//DTD SVG 1.1//EN" "http://www.w3.org/Graphics/SVG/1.1/DTD/svg11.dtd">
<svg version="1.1" id="Layer_1" xmlns="http://www.w3.org/2000/svg" xmlns:xlink="http://www.w3.org/1999/xlink" x="0px" y="0px"
	 width="110px" height="30px" viewBox="0 0 110 30" enable-background="new 0 0 110 30" xml:space="preserve">
<g>
	<g>
		<path fill="#DF002B" d="M3.589,21.627l-2.706-8.339c-0.054-0.165,0.016-0.386,0.148-0.489l4.134-3.252
			c0.14-0.107,0.338-0.076,0.445,0.057l3.069,4.245c0.102,0.134,0.106,0.369,0.009,0.513L3.87,21.66
			C3.771,21.805,3.644,21.791,3.589,21.627z M17.254,26.631l-5.453-6.838c-0.111-0.137-0.331-0.205-0.496-0.152l-4.975,1.605
			c-0.165,0.062-0.254,0.24-0.196,0.406l1.81,4.938c0.061,0.16,0.247,0.287,0.421,0.287l8.765,0.008
			C17.306,26.881,17.36,26.768,17.254,26.631z M26.116,15.428l-8.19,3.076c-0.162,0.059-0.294,0.25-0.294,0.422l-0.006,5.23
			c0.002,0.178,0.147,0.314,0.323,0.311l5.253-0.199c0.171-0.006,0.354-0.143,0.409-0.311l2.711-8.33
			C26.373,15.46,26.279,15.371,26.116,15.428z M18.203,3.541l0.396,8.743c0.004,0.173,0.146,0.356,0.308,0.41l4.975,1.625
			c0.167,0.049,0.345-0.046,0.396-0.21l1.433-5.058c0.045-0.166-0.027-0.389-0.169-0.49l-7.087-5.15
			C18.31,3.308,18.199,3.367,18.203,3.541z M4.452,7.393l8.431,2.329c0.17,0.041,0.386-0.032,0.487-0.173l3.084-4.226
			c0.1-0.143,0.062-0.34-0.083-0.441l-4.364-2.927c-0.142-0.096-0.374-0.093-0.512,0.009L4.402,7.115
			C4.261,7.219,4.286,7.343,4.452,7.393z"/>
		<path d="M49.304,12.772c-2.567,0-4.768,1.833-4.768,4.753c0,2.566,1.799,4.422,4.433,4.422c2.569,0,4.771-1.834,4.771-4.754
			C53.741,14.625,51.942,12.772,49.304,12.772z M49.47,20.912c-2,0-3.167-1.799-3.167-3.953c0-1.82,0.834-3.15,2.502-3.15
			c2.001,0,3.167,1.797,3.167,3.951C51.972,19.574,51.137,20.912,49.47,20.912z M59.642,12.772c-2.566,0-4.767,1.833-4.767,4.753
			c0,2.566,1.8,4.422,4.434,4.422c2.567,0,4.771-1.834,4.771-4.754C64.079,14.625,62.278,12.772,59.642,12.772z M59.81,20.912
			c-2.002,0-3.168-1.799-3.168-3.953c0-1.82,0.832-3.15,2.5-3.15c2.002,0,3.17,1.797,3.17,3.951
			C62.312,19.574,61.476,20.912,59.81,20.912z M43.25,18.109h0.616l-0.616,3.672H32.815v-0.717c1.25-0.051,1.918-0.236,1.918-1.354
			v-8.873c0-1.115-0.668-1.302-1.918-1.351V8.769h5.722v0.719c-1.252,0.049-1.919,0.236-1.919,1.351v8.773
			c0,1,0.552,1.25,1.919,1.25h1.578C41.782,20.861,42.185,20.043,43.25,18.109z M92.736,20.492c-2.2,0-3.202-1.416-3.202-3.715
			h6.541v-0.467c0-2-1.27-3.539-3.705-3.539c-2.553,0-4.42,1.957-4.42,4.871c0,2.385,1.584,4.305,4.27,4.305
			c2.354,0,3.505-1.336,3.87-2.555l-0.485-0.215C95.054,19.863,94.122,20.492,92.736,20.492z M91.954,13.809
			c1.5,0,2.284,0.965,2.284,2.133h-4.653C89.768,14.694,90.635,13.809,91.954,13.809z M102.411,20.895
			c-0.418,0.467-1.167,1.053-2.318,1.053c-1.269,0-2.42-0.654-2.42-2.373V13.86H96.39v-0.585c0.885-0.537,1.601-1.171,2.451-2.234
			h0.5v1.897h2.604v0.922h-2.604v5.132c0,1.203,0.518,1.732,1.537,1.732c0.448,0,0.883-0.08,1.334-0.295L102.411,20.895z
			 M88.338,9.487c-1.173,0.049-1.8,0.236-1.8,1.351v10.943h-0.809L77.234,11.59v8.121c0,1.117,0.627,1.303,1.802,1.354v0.717h-4.703
			v-0.717c1.171-0.051,1.798-0.236,1.798-1.354v-9.123c-0.704-0.864-0.938-1.08-1.798-1.101V8.769h3.01l8.091,9.696v-7.626
			c0-1.115-0.626-1.302-1.798-1.351V8.769h4.702V9.487z M70.487,12.772c-1.3,0-2.467,0.634-3.184,1.554l0.084-1.554h-0.584
			l-2.42,0.834v0.402l1.252,0.586v9.585c0,0.766-0.567,0.852-1.334,0.953v0.646h4.336v-0.646c-0.767-0.102-1.334-0.188-1.334-0.953
			v-2.9c0.532,0.4,1.302,0.668,2.301,0.668c2.635,0,4.801-1.92,4.801-5.004C74.405,14.643,73.056,12.772,70.487,12.772z
			 M69.789,20.996c-1.267,0-2.485-0.518-2.485-2.104v-3.754c0.567-0.597,1.535-1.1,2.549-1.1c2.154,0,2.838,1.87,2.838,3.604
			C72.69,19.797,71.538,20.996,69.789,20.996z M105.372,12.779v0.263h-0.742v1.94h-0.304v-1.94h-0.74v-0.263H105.372z
			 M105.64,12.779h0.428l0.633,1.866l0.629-1.866h0.424v2.204h-0.283v-1.297c0-0.045,0.002-0.122,0.004-0.227
			c0.001-0.104,0.001-0.216,0.001-0.333l-0.628,1.856h-0.297l-0.635-1.856v0.064c0,0.055,0.001,0.14,0.004,0.251
			c0.004,0.11,0.004,0.191,0.004,0.244v1.297h-0.283V12.779z"/>
	</g>
</g>
</svg>
